<svg version="1.1" id="Layer_1" xmlns="http://www.w3.org/2000/svg" xmlns:xlink="http://www.w3.org/1999/xlink" x="0px" y="0px"
	 width="537.2px" height="359.3px" viewBox="0 0 537.2 359.3" style="enable-background:new 0 0 537.2 359.3;" xml:space="preserve"
	>
<g>
	<g id="Grill_2_">
		<g>
			<polygon style="fill:#D70000;" points="402.6,347.4 402.6,340.7 366.4,340.7 366.4,296.7 358.9,296.7 358.9,347.4 			"/>
			<rect x="358.9" y="351.6" style="fill:#D70000;" width="43.7" height="6.8"/>
		</g>
		<g>
			<polygon style="fill:#D70000;" points="348.2,347.4 348.2,340.7 312,340.7 312,296.7 304.5,296.7 304.5,347.4 			"/>
			<rect x="304.5" y="351.6" style="fill:#D70000;" width="43.7" height="6.8"/>
		</g>
		<g>
			<path style="fill:#D70000;" d="M266.4,296.7h7.5v61.7h-7.5V296.7z"/>
			<path style="fill:#D70000;" d="M278.1,296.7h7.5v61.7h-7.5V296.7z"/>
		</g>
		<g>
			<polygon style="fill:#D70000;" points="204.1,296.7 204.1,296.7 204.1,358.4 210.9,358.4 210.9,296.7 210.9,296.7 			"/>
			<g>
				<polygon style="fill:#D70000;" points="221.8,296.7 221.8,296.7 215,296.7 215,296.7 215,358.4 221.8,358.4 				"/>
				<path style="fill:#D70000;" d="M251.6,352.9c-7.1,0-11.8-8-16.8-14.7c8.7-2.3,15.3-9.5,15.3-20.2c0-14.6-9.9-21.3-21.5-21.3H226
					v6.9h1.8c8,0,14.7,4.7,14.7,14.5c0,8.9-6.7,14.2-14.7,14.2H226v6.9c5.1,5.6,11.6,20.1,23.8,20.1c2.2,0,4.1-0.4,4.1-0.4v-6.3
					C253.1,352.8,252.4,352.9,251.6,352.9z"/>
			</g>
		</g>
		<g>
			<path style="fill:#D70000;" d="M175,334.5h-16v6.8h9.3v10.9c-1.3,0.1-2.7,0.1-4,0.1c-17,0-28.2-10-28.2-24.7
				c0-14.5,11.1-24.5,28.1-24.5c8.6,0,16.1,2.7,19.2,4.4l0.7-7.1c-6-3-12.9-4.4-19.8-4.4c-21.7,0-36.1,12.9-36.1,31.7
				c0,18.8,14.5,31.7,36.4,31.7c3.4,0,7-0.3,10.5-1V334.5z"/>
			<path style="fill:#D70000;" d="M159,323.5v6.8h20.2v27c2.6-0.8,5-1.8,7.2-3.1v-30.7H159z"/>
		</g>
	</g>
	<g id="Shekamoo_2_">
		<g>
			<path style="fill:#D70000;" d="M537.2,246.1c-0.5-18.1-14.2-31-32.6-31c-18.1,0-31.8,12.9-32.3,31H537.2z M504.6,222.2
				c11.8,0,20.8,6.8,23.8,17.1h-47.3C484.1,229,493,222.2,504.6,222.2z"/>
			<path style="fill:#D70000;" d="M472.3,249.4c1,17.3,14.6,29.3,32.2,29.3c18,0,31.5-12,32.6-29.3H472.3z M504.6,271.6
				c-11.1,0-19.7-6-23.1-15.4H528C524.6,265.6,515.9,271.6,504.6,271.6z"/>
		</g>
		<g>
			<path style="fill:#D70000;" d="M463,246.1c-0.5-18.1-14.2-31-32.6-31c-18.1,0-31.8,12.9-32.3,31H463z M430.3,222.2
				c11.8,0,20.8,6.8,23.8,17.1h-47.3C409.9,229,418.8,222.2,430.3,222.2z"/>
			<path style="fill:#D70000;" d="M398.1,249.4c1,17.3,14.5,29.3,32.2,29.3c18,0,31.5-12,32.6-29.3H398.1z M430.3,271.6
				c-11.1,0-19.7-6-23.1-15.4h46.5C450.4,265.6,441.6,271.6,430.3,271.6z"/>
		</g>
		<g>
			<polygon style="fill:#D70000;" points="351.6,257.6 386.8,216.1 377.1,216.1 351.6,246.8 325.9,216.1 316.5,216.1 			"/>
			<polygon style="fill:#D70000;" points="351.6,263 318.6,224.1 318.6,224.1 318.6,277.7 326,277.7 326,243.8 351.6,273.8 
				377,243.8 377,277.7 384.4,277.7 384.4,224.5 			"/>
		</g>
		<g>
			<path style="fill:#D70000;" d="M301.3,247.9v-9.1c0-13.9-9-23.6-25.7-23.6c-17.6,0-26,9.7-26,23.6v9.1H301.3z M257.1,240.8
				c0-12,5.9-18.4,18.5-18.4c11.8,0,18.1,6.4,18.1,18.4v0.4h-36.6V240.8z"/>
			<polygon style="fill:#D70000;" points="249.6,251.2 249.6,277.7 257.1,277.7 257.1,258 293.8,258 293.8,277.7 301.3,277.7 
				301.3,251.2 			"/>
		</g>
		<g>
			<rect x="187.6" y="216.1" style="fill:#D70000;" width="6.8" height="61.6"/>
			<rect x="198.2" y="216.1" style="fill:#D70000;" width="6.8" height="61.6"/>
			<path style="fill:#D70000;" d="M237.9,271.9c-9.5,0-17.4-17.1-23.1-23.5l19.6-32.4h-8.7l-17,28.2v8.3
				c5.6,6.8,14.6,26.1,27.5,26.1c1.9,0,4-0.4,4.6-0.5v-6.4C240,271.8,238.6,271.9,237.9,271.9z"/>
		</g>
		<g>
			<polygon style="fill:#D70000;" points="133.9,254.6 166,254.6 166,247.8 165.9,247.8 126.4,247.8 126.4,277.7 171.6,277.7 
				171.6,270.9 133.9,270.9 			"/>
			<polygon style="fill:#D70000;" points="165.9,244.5 166,244.5 166,237.7 133.9,237.7 133.9,222.9 170.6,222.9 170.6,216.1 
				126.4,216.1 126.4,244.5 			"/>
		</g>
		<g>
			<polygon style="fill:#D70000;" points="108.4,244.5 108.4,216.1 101,216.1 101,237.7 63.9,237.7 63.9,216.1 56.4,216.1 
				56.4,244.5 			"/>
			<polygon style="fill:#D70000;" points="56.4,247.8 56.4,277.7 63.9,277.7 63.9,254.6 101,254.6 101,277.7 108.4,277.7 
				108.4,247.8 			"/>
		</g>
		<g>
			<path style="fill:#D70000;" d="M43.4,255.2c0-8.4-4.7-12.8-14.8-16.1l-9.7-3.1c-3.3-1.1-6.7-2-8.8-4.2c-1.3-1.4-1.8-3.3,0-5.6
				c2.3-2.8,6.8-4.2,12.6-4.2c5.4,0,11.9,1.3,16.8,3.5l0.2-1.6l0.6-5.3c-0.2-0.1-0.4-0.1-0.6-0.2c-4.9-1.8-10.8-3.1-17.5-3.1
				c-12.4,0-20.3,5.5-21.7,14.5c-0.2,1-0.2,2-0.2,3.1c0,0.9,0,4.5,0,5.6c0,8.8,7,12.8,15.2,15.4l10.4,3.3c3.8,1.2,6.3,2.5,7.8,4.2
				c2.1,2.3,1.2,4,0.2,5.6c-2.3,3.3-7.1,5-13.2,5c-6.4,0-14.6-2-19.8-4.5l-0.2,1.5L0,274.4c0.2,0.1,0.4,0.2,0.5,0.2
				c5.4,2.4,13.6,4,20.6,4c12.3,0,20.6-5.9,22-14.9c0.1-0.9,0.2-1.8,0.2-2.7C43.4,259.9,43.4,256.1,43.4,255.2z M8.2,239.4
				c2.1,1.2,4.6,2.1,7.1,2.9l10.4,3.3c5.9,1.9,8.8,4,9.5,7.6c-1.9-1.1-4.2-2-6.8-2.9l-9.7-3.1C14,245.7,9.2,244.4,8.2,239.4z"/>
		</g>
	</g>
	<g id="Kabob_2_">
		<path style="fill:#D70000;" d="M171.1,167.3c0-0.1-0.8-1.7-2.8-2.2c-1-0.3-2.2-0.4-3.4-0.4c-1.6,0-4.4,0.3-6.2,2.1
			c-0.6,0.6-8.4,10.7-8.8,11.2c0,0-0.5,0.6-0.5,1.3c0,0.4,0.2,0.8,0.5,1.1c0.5,0.5,2.3,0.9,4.2,0.9l0,0c1.5,0,5.3-0.3,6.8-2.9
			c0.1-0.2,0.3-0.6,0.6-1c1.4-2.4,4.2-7.4,6.2-8.2c0.6-0.2,1.2-0.4,1.7-0.5c0.9-0.3,1.6-0.4,1.7-0.8
			C171.2,167.6,171.2,167.5,171.1,167.3z"/>
		<path style="fill:#D70000;" d="M190.7,167.3c0-0.1-0.8-1.7-2.8-2.2c-1-0.3-2.2-0.4-3.4-0.4c-1.6,0-4.4,0.3-6.2,2.1
			c-0.6,0.6-8.4,10.7-8.8,11.2c0,0-0.5,0.6-0.5,1.3c0,0.4,0.2,0.8,0.5,1.1c0.5,0.5,2.3,0.9,4.2,0.9l0,0c1.5,0,5.3-0.3,6.8-2.9
			c0.1-0.2,0.3-0.6,0.6-1c1.4-2.4,4.2-7.4,6.2-8.2c0.6-0.2,1.2-0.4,1.7-0.5c0.9-0.3,1.6-0.4,1.7-0.8
			C190.8,167.6,190.8,167.5,190.7,167.3z"/>
		<path style="fill:#D70000;" d="M210.2,167.3c0-0.1-0.8-1.7-2.8-2.2c-1-0.3-2.2-0.4-3.4-0.4c-1.6,0-4.4,0.3-6.2,2.1
			c-0.6,0.6-8.4,10.7-8.8,11.2c0,0-0.5,0.6-0.5,1.3c0,0.4,0.2,0.8,0.5,1.1c0.5,0.5,2.3,0.9,4.2,0.9h0c1.5,0,5.3-0.3,6.8-2.9
			c0.1-0.2,0.3-0.6,0.6-1c1.4-2.4,4.2-7.4,6.2-8.2c0.6-0.2,1.2-0.4,1.7-0.5c0.9-0.3,1.6-0.4,1.7-0.8
			C210.3,167.6,210.3,167.5,210.2,167.3z"/>
		<path style="fill:#D70000;" d="M229.8,167.3c0-0.1-0.8-1.7-2.8-2.2c-1-0.3-2.2-0.4-3.4-0.4c-1.6,0-4.4,0.3-6.2,2.1
			c-0.6,0.6-8.4,10.7-8.8,11.2c0,0-0.5,0.6-0.5,1.3c0,0.4,0.2,0.8,0.5,1.1c0.5,0.5,2.3,0.9,4.2,0.9l0,0c1.5,0,5.3-0.3,6.8-2.9
			c0.1-0.2,0.3-0.6,0.6-1c1.4-2.4,4.2-7.4,6.2-8.2c0.6-0.2,1.2-0.4,1.7-0.5c0.9-0.3,1.6-0.4,1.7-0.8
			C229.9,167.6,229.9,167.5,229.8,167.3z"/>
		<path style="fill:#D70000;" d="M249.4,167.3c0-0.1-0.8-1.7-2.8-2.2c-1-0.3-2.2-0.4-3.4-0.4c-1.6,0-4.4,0.3-6.2,2.1
			c-0.6,0.6-8.4,10.7-8.8,11.2c0,0-0.5,0.6-0.5,1.3c0,0.4,0.2,0.8,0.5,1.1c0.5,0.5,2.3,0.9,4.2,0.9l0,0c1.5,0,5.3-0.3,6.8-2.9
			c0.1-0.2,0.3-0.6,0.6-1c1.4-2.4,4.2-7.4,6.2-8.2c0.6-0.2,1.2-0.4,1.7-0.5c0.9-0.3,1.6-0.4,1.7-0.8
			C249.5,167.6,249.4,167.5,249.4,167.3z"/>
		<path style="fill:#D70000;" d="M268.9,167.3c0-0.1-0.8-1.7-2.8-2.2c-1-0.3-2.2-0.4-3.4-0.4c-1.6,0-4.4,0.3-6.2,2.1
			c-0.6,0.6-8.4,10.7-8.8,11.2c0,0-0.5,0.6-0.5,1.3c0,0.4,0.2,0.8,0.5,1.1c0.5,0.5,2.3,0.9,4.2,0.9l0,0c1.5,0,5.3-0.3,6.8-2.9
			c0.1-0.2,0.3-0.6,0.6-1c1.4-2.4,4.2-7.4,6.2-8.2c0.6-0.2,1.2-0.4,1.7-0.5c0.9-0.3,1.6-0.4,1.7-0.8
			C269,167.6,269,167.5,268.9,167.3z"/>
		<path style="fill:#D70000;" d="M288.5,167.3c0-0.1-0.8-1.7-2.8-2.2c-1-0.3-2.2-0.4-3.4-0.4c-1.6,0-4.4,0.3-6.1,2.1
			c-0.6,0.6-8.4,10.7-8.8,11.2c0,0-0.5,0.6-0.5,1.3c0,0.4,0.2,0.8,0.5,1.1c0.5,0.5,2.3,0.9,4.2,0.9l0,0c1.5,0,5.3-0.3,6.8-2.9
			c0.1-0.2,0.3-0.6,0.6-1c1.4-2.4,4.2-7.4,6.2-8.2c0.6-0.2,1.2-0.4,1.7-0.5c0.9-0.3,1.6-0.4,1.7-0.8
			C288.6,167.6,288.6,167.5,288.5,167.3z"/>
		<path style="fill:#D70000;" d="M308,167.3c0-0.1-0.8-1.7-2.8-2.2c-1-0.3-2.2-0.4-3.4-0.4c-1.6,0-4.4,0.3-6.2,2.1
			c-0.6,0.6-8.4,10.7-8.8,11.2c0,0-0.5,0.6-0.5,1.3c0,0.4,0.2,0.8,0.5,1.1c0.5,0.5,2.3,0.9,4.2,0.9l0,0c1.5,0,5.3-0.3,6.8-2.9
			c0.1-0.2,0.3-0.6,0.6-1c1.4-2.4,4.2-7.4,6.2-8.2c0.6-0.2,1.2-0.4,1.7-0.5c0.9-0.3,1.6-0.4,1.7-0.8
			C308.1,167.6,308.1,167.5,308,167.3z"/>
		<path style="fill:#D70000;" d="M327.6,167.3c0-0.1-0.8-1.7-2.8-2.2c-1-0.3-2.2-0.4-3.4-0.4c-1.6,0-4.4,0.3-6.2,2.1
			c-0.6,0.6-8.4,10.7-8.8,11.2c0,0-0.5,0.6-0.5,1.3c0,0.4,0.2,0.8,0.5,1.1c0.5,0.5,2.3,0.9,4.2,0.9l0,0c1.5,0,5.3-0.3,6.8-2.9
			c0.1-0.2,0.3-0.6,0.6-1c1.4-2.4,4.2-7.4,6.2-8.2c0.6-0.2,1.2-0.4,1.7-0.5c0.9-0.3,1.6-0.4,1.7-0.8
			C327.7,167.6,327.7,167.5,327.6,167.3z"/>
		<path style="fill:#D70000;" d="M347.1,167.3c0-0.1-0.8-1.7-2.8-2.2c-1-0.3-2.2-0.4-3.4-0.4c-1.6,0-4.4,0.3-6.2,2.1
			c-0.6,0.6-8.4,10.7-8.8,11.2c0,0-0.5,0.6-0.5,1.3c0,0.4,0.2,0.8,0.5,1.1c0.5,0.5,2.3,0.9,4.2,0.9l0,0c1.5,0,5.3-0.3,6.8-2.9
			c0.1-0.2,0.3-0.6,0.6-1c1.4-2.4,4.2-7.4,6.2-8.2c0.6-0.2,1.2-0.4,1.7-0.5c0.9-0.3,1.6-0.4,1.7-0.8
			C347.2,167.6,347.2,167.5,347.1,167.3z"/>
		<path style="fill:#D70000;" d="M366.7,167.3c0-0.1-0.8-1.7-2.8-2.2c-1-0.3-2.2-0.4-3.4-0.4c-1.6,0-4.4,0.3-6.2,2.1
			c-0.6,0.6-8.4,10.7-8.8,11.2c0,0-0.5,0.6-0.5,1.3c0,0.4,0.2,0.8,0.5,1.1c0.5,0.5,2.3,0.9,4.2,0.9l0,0c1.5,0,5.3-0.3,6.8-2.9
			c0.1-0.2,0.3-0.6,0.6-1c1.4-2.4,4.2-7.4,6.2-8.2c0.6-0.2,1.2-0.4,1.7-0.5c0.9-0.3,1.6-0.4,1.7-0.8
			C366.8,167.6,366.8,167.5,366.7,167.3z"/>
		<path style="fill:#D70000;" d="M386.3,167.3c0-0.1-0.8-1.7-2.8-2.2c-1-0.3-2.2-0.4-3.4-0.4c-1.6,0-4.4,0.3-6.2,2.1
			c-0.6,0.6-8.4,10.7-8.8,11.2c0,0-0.5,0.6-0.5,1.3c0,0.4,0.2,0.8,0.5,1.1c0.5,0.5,2.3,0.9,4.2,0.9l0,0c1.5,0,5.3-0.3,6.8-2.9
			c0.1-0.2,0.3-0.6,0.6-1c1.4-2.4,4.2-7.4,6.2-8.2c0.6-0.2,1.2-0.4,1.7-0.5c0.9-0.3,1.6-0.4,1.7-0.8
			C386.4,167.6,386.3,167.5,386.3,167.3z"/>
		<polygon style="fill:#D70000;" points="390.5,170 383.6,177.9 427.7,177.9 443.4,173.9 434.5,170 		"/>
		<path style="fill:#D70000;" d="M150.6,170h-30.9c0-1.2-1-2.2-2.2-2.2l0,0H79.9c-6,0-8.5,4.1-8.8,5.7c-0.2,1.2-0.6,5.7,4.8,5.7
			h35.3c0.9,0,1.3-0.5,1.9-1.2l0.1-0.1H144L150.6,170z"/>
		<path style="fill:#D70000;" d="M380.9,182.5c-3.9,3.3-7.5,3.5-10.6,3.5c-0.4,0-0.7,0-1.1,0c-3.6,0-4.9-2.1-7-2.2
			c-4.6,0-9.1,2.2-12.6,2.2c-3.6,0-4.9-2.1-7-2.2c-4.6,0-9.1,2.2-12.6,2.2c-3.6,0-4.9-2.1-7-2.2c-4.6,0-9.1,2.2-12.6,2.2
			c-3.6,0-4.9-2.1-7-2.2c-4.6,0-9.1,2.2-12.6,2.2c-3.6,0-4.9-2.1-7-2.2c-4.6,0-9.1,2.2-12.6,2.2c-3.6,0-4.9-2.1-7-2.2
			c-4.6,0-9.1,2.2-12.6,2.2c-3.6,0-4.9-2.1-7-2.2c-4.6,0-9.1,2.2-12.6,2.2c-3.6,0-4.9-2.1-7-2.2c-4.6,0-9.1,2.2-12.6,2.2
			c-3.6,0-4.9-2.1-7-2.2c-4.6,0-9.1,2.2-12.6,2.2c-3.6,0-4.9-2.1-7-2.2c-4.6,0-9.1,2.2-12.6,2.2c-3.6,0-4.9-2.1-7-2.2
			c-4.6,0-9.1,2.2-12.6,2.2c-6.5,0-8.6-2-10.1-3.6v0.1H140c0.5,1.1,1.5,2.5,2,3c2.4,2.6,6.2,4.1,12.2,4.1c2.1,0,4.1-0.5,6.3-1.1
			c2-0.5,4.2-1.1,6.2-1.1c0.2,0,0.6,0.3,0.9,0.5c1.3,0.7,3.2,1.7,6.1,1.7c2.1,0,4.1-0.5,6.3-1.1c2-0.5,4.2-1.1,6.2-1.1
			c0.2,0,0.6,0.3,0.9,0.5c1.3,0.7,3.2,1.7,6.1,1.7c2.1,0,4.1-0.5,6.3-1.1c2-0.5,4.2-1.1,6.2-1.1c0.2,0,0.6,0.3,0.9,0.5
			c1.3,0.7,3.2,1.7,6.1,1.7c2.1,0,4.1-0.5,6.3-1.1c2-0.5,4.2-1.1,6.2-1.1c0.2,0,0.6,0.3,0.9,0.5c1.3,0.7,3.2,1.7,6.1,1.7
			c2.1,0,4.1-0.5,6.3-1.1c2.1-0.5,4.2-1.1,6.2-1.1c0.2,0,0.6,0.3,0.9,0.5c1.3,0.7,3.2,1.7,6.1,1.7c2.1,0,4.1-0.5,6.3-1.1
			c2-0.5,4.2-1.1,6.2-1.1c0.2,0,0.6,0.3,0.9,0.5c1.3,0.7,3.2,1.7,6.1,1.7c2.1,0,4.1-0.5,6.3-1.1c2-0.5,4.2-1.1,6.2-1.1
			c0.2,0,0.6,0.3,1,0.5c1.3,0.7,3.2,1.7,6.1,1.7c2.1,0,4.1-0.5,6.3-1.1c2-0.5,4.2-1.1,6.2-1.1c0.2,0,0.6,0.3,1,0.5
			c1.3,0.7,3.2,1.7,6.1,1.7c2.1,0,4.1-0.5,6.3-1.1c2.1-0.5,4.2-1.1,6.2-1.1c0.2,0,0.6,0.3,1,0.5c1.3,0.7,3.2,1.7,6.1,1.7
			c2.1,0,4.1-0.5,6.3-1.1c2-0.5,4.2-1.1,6.2-1.1c0.2,0,0.6,0.3,0.9,0.5c1.3,0.7,3.2,1.7,6.1,1.7c2.1,0,4.1-0.5,6.3-1.1
			c2-0.5,4.2-1.1,6.2-1.1c0.2,0,0.6,0.3,0.9,0.5c1.3,0.7,3.2,1.7,6.1,1.7h0.5h0.5c9.4,0,14.4-4.9,16-7.1H380.9z"/>
	</g>
	<g id="Flame_2_">
		<path style="fill:#D70000;" d="M335.2,93.1c-2.7,4.6-6.5,8-9.6,10.4c-2.5-19.9-16-37.1-9.6-55.5c-22.4,7.9-28.3,25.7-28.3,25.7
			C283,49.1,247.5,29.8,256.5,0c-30,39.1,1.6,59.3-2.1,82.5c-6.3-21-31.8-20.6-31.8-42.4c-14,18.1,7,46.5,5.4,61.6
			c-7.8-10.9-26.2-14.8-26.2-14.8c13.1,13.8-18.3,44.3,14.6,65.5c-14.8-23.7-3.5-31.2-2.1-48.5c9.9,3.8,18.1,11.7,18.1,11.7
			c9-18.1-1.1-37.6-3.7-48.9C240.4,75,252,88.8,251.8,101c23.9-20.7,7.3-43.1,2.8-59.8c20,18.3,29.9,49.4,31.8,58.1
			c5.2-22.5,18.7-30.1,18.7-30.1c-0.4,14.1,19.5,37.9,5.3,69.3l-8.3,13.9C335.7,124.2,335.2,111.5,335.2,93.1z"/>
	</g>
</g>
</svg>
